<svg id="visual" viewBox="0 0 960 540" width="960" height="540" xmlns="http://www.w3.org/2000/svg" xmlns:xlink="http://www.w3.org/1999/xlink" version="1.1"><g stroke-width="1" stroke-linejoin="bevel"><path d="M447 294L431 251.5L398.9 282Z" fill="#d6dce0" stroke="#d6dce0"></path><path d="M431 251.5L395.4 247.5L398.9 282Z" fill="#d0d6da" stroke="#d0d6da"></path><path d="M431 251.5L402.4 225L395.4 247.5Z" fill="#cfd5d8" stroke="#cfd5d8"></path><path d="M402.4 225L388.9 206.5L395.4 247.5Z" fill="#dde3e8" stroke="#dde3e8"></path><path d="M342.9 379.5L381.4 381.5L398.9 282Z" fill="#d3d9dd" stroke="#d3d9dd"></path><path d="M512 113L388.9 206.5L402.4 225Z" fill="#dae0e5" stroke="#dae0e5"></path><path d="M398.9 282L418 382.5L447 294Z" fill="#d5dbde" stroke="#d5dbde"></path><path d="M553.6 277.5L536.6 261L447 294Z" fill="#d3d9dd" stroke="#d3d9dd"></path><path d="M447 294L536.6 261L431 251.5Z" fill="#dce2e6" stroke="#dce2e6"></path><path d="M431 251.5L512 113L402.4 225Z" fill="#dce2e6" stroke="#dce2e6"></path><path d="M398.9 282L381.4 381.5L418 382.5Z" fill="#d9dfe3" stroke="#d9dfe3"></path><path d="M342.9 379.5L398.9 282L287.9 348Z" fill="#dae0e5" stroke="#dae0e5"></path><path d="M564.1 378L553.6 277.5L447 294Z" fill="#d0d6da" stroke="#d0d6da"></path><path d="M553.6 277.5L541.6 222.5L536.6 261Z" fill="#d0d6da" stroke="#d0d6da"></path><path d="M536.6 261L541.6 222.5L431 251.5Z" fill="#d2d8db" stroke="#d2d8db"></path><path d="M293.3 233L398.9 282L395.4 247.5Z" fill="#cfd5d8" stroke="#cfd5d8"></path><path d="M388.9 206.5L293.3 233L395.4 247.5Z" fill="#d9dfe3" stroke="#d9dfe3"></path><path d="M512 113L371.9 142L388.9 206.5Z" fill="#d9dfe3" stroke="#d9dfe3"></path><path d="M388.9 206.5L363.4 139L293.3 233Z" fill="#d2d8db" stroke="#d2d8db"></path><path d="M371.9 142L363.4 139L388.9 206.5Z" fill="#d2d8db" stroke="#d2d8db"></path><path d="M293.3 233L287.9 348L398.9 282Z" fill="#d3d9dd" stroke="#d3d9dd"></path><path d="M402.4 467L469 443L418 382.5Z" fill="#dde3e8" stroke="#dde3e8"></path><path d="M418 382.5L564.1 378L447 294Z" fill="#d9dfe3" stroke="#d9dfe3"></path><path d="M402.4 467L418 382.5L381.4 381.5Z" fill="#d7dde2" stroke="#d7dde2"></path><path d="M484.6 444.5L564.1 378L418 382.5Z" fill="#d9dfe3" stroke="#d9dfe3"></path><path d="M564.1 378L582.1 354.5L553.6 277.5Z" fill="#dde3e8" stroke="#dde3e8"></path><path d="M618.1 226L598.1 199.5L541.6 222.5Z" fill="#d9dfe3" stroke="#d9dfe3"></path><path d="M469 443L484.6 444.5L418 382.5Z" fill="#dde3e8" stroke="#dde3e8"></path><path d="M287.9 348L264.7 396.5L342.9 379.5Z" fill="#d0d6da" stroke="#d0d6da"></path><path d="M342.9 379.5L402.4 467L381.4 381.5Z" fill="#d6dce0" stroke="#d6dce0"></path><path d="M245.3 352L265.3 359.5L287.9 348Z" fill="#d5dbde" stroke="#d5dbde"></path><path d="M455.4 540L484.6 452L469 443Z" fill="#cfd5d8" stroke="#cfd5d8"></path><path d="M469 443L484.6 452L484.6 444.5Z" fill="#d7dde2" stroke="#d7dde2"></path><path d="M484.6 444.5L539 515.5L564.1 378Z" fill="#d9dfe3" stroke="#d9dfe3"></path><path d="M224.3 175.5L240.7 281L293.3 233Z" fill="#d3d9dd" stroke="#d3d9dd"></path><path d="M293.3 233L240.7 281L287.9 348Z" fill="#d0d6da" stroke="#d0d6da"></path><path d="M598.1 199.5L512 113L541.6 222.5Z" fill="#dae0e5" stroke="#dae0e5"></path><path d="M541.6 222.5L512 113L431 251.5Z" fill="#d3d9dd" stroke="#d3d9dd"></path><path d="M448.4 46.5L322.3 74L363.4 139Z" fill="#d3d9dd" stroke="#d3d9dd"></path><path d="M618.1 226L541.6 222.5L553.6 277.5Z" fill="#d3d9dd" stroke="#d3d9dd"></path><path d="M345.9 488.5L402.4 467L342.9 379.5Z" fill="#d5dbde" stroke="#d5dbde"></path><path d="M240.7 281L245.3 352L287.9 348Z" fill="#dae0e5" stroke="#dae0e5"></path><path d="M265.3 359.5L264.7 396.5L287.9 348Z" fill="#d0d6da" stroke="#d0d6da"></path><path d="M582.1 354.5L618.1 226L553.6 277.5Z" fill="#d7dde2" stroke="#d7dde2"></path><path d="M245.3 352L264.7 396.5L265.3 359.5Z" fill="#cfd5d8" stroke="#cfd5d8"></path><path d="M601.6 94.5L537.6 85L512 113Z" fill="#cfd5d8" stroke="#cfd5d8"></path><path d="M448.4 46.5L363.4 139L371.9 142Z" fill="#d0d6da" stroke="#d0d6da"></path><path d="M625.1 142L512 113L598.1 199.5Z" fill="#dce2e6" stroke="#dce2e6"></path><path d="M255.7 454.5L345.9 488.5L342.9 379.5Z" fill="#d6dce0" stroke="#d6dce0"></path><path d="M503 540L539 515.5L484.6 452Z" fill="#d5dbde" stroke="#d5dbde"></path><path d="M278.3 94.5L293.3 233L363.4 139Z" fill="#d2d8db" stroke="#d2d8db"></path><path d="M278.3 94.5L224.3 175.5L293.3 233Z" fill="#d3d9dd" stroke="#d3d9dd"></path><path d="M240.7 281L188.1 286.5L245.3 352Z" fill="#d9dfe3" stroke="#d9dfe3"></path><path d="M448.4 46.5L371.9 142L512 113Z" fill="#dce2e6" stroke="#dce2e6"></path><path d="M537.6 85L448.4 46.5L512 113Z" fill="#d6dce0" stroke="#d6dce0"></path><path d="M322.3 74L278.3 94.5L363.4 139Z" fill="#cfd5d8" stroke="#cfd5d8"></path><path d="M224.3 175.5L188.1 286.5L240.7 281Z" fill="#dde3e8" stroke="#dde3e8"></path><path d="M245.3 352L249.3 437.5L264.7 396.5Z" fill="#dce2e6" stroke="#dce2e6"></path><path d="M148.7 345L249.3 437.5L245.3 352Z" fill="#d5dbde" stroke="#d5dbde"></path><path d="M264.7 396.5L255.7 454.5L342.9 379.5Z" fill="#d7dde2" stroke="#d7dde2"></path><path d="M305.3 540L363.4 508.5L345.9 488.5Z" fill="#dde3e8" stroke="#dde3e8"></path><path d="M345.9 488.5L363.4 508.5L402.4 467Z" fill="#d2d8db" stroke="#d2d8db"></path><path d="M657.7 160.5L625.1 142L598.1 199.5Z" fill="#d7dde2" stroke="#d7dde2"></path><path d="M86.1 484.5L255.7 454.5L249.3 437.5Z" fill="#dae0e5" stroke="#dae0e5"></path><path d="M249.3 437.5L255.7 454.5L264.7 396.5Z" fill="#d3d9dd" stroke="#d3d9dd"></path><path d="M625.1 142L601.6 94.5L512 113Z" fill="#d2d8db" stroke="#d2d8db"></path><path d="M537.6 85L484 11.5L448.4 46.5Z" fill="#d0d6da" stroke="#d0d6da"></path><path d="M278.3 94.5L192.7 166L224.3 175.5Z" fill="#d9dfe3" stroke="#d9dfe3"></path><path d="M224.3 175.5L186.1 170.5L188.1 286.5Z" fill="#d0d6da" stroke="#d0d6da"></path><path d="M618.1 226L657.7 160.5L598.1 199.5Z" fill="#dde3e8" stroke="#dde3e8"></path><path d="M625.1 142L726.7 102L601.6 94.5Z" fill="#dae0e5" stroke="#dae0e5"></path><path d="M709.7 222L657.7 160.5L618.1 226Z" fill="#d0d6da" stroke="#d0d6da"></path><path d="M184.7 162.5L186.1 170.5L192.7 166Z" fill="#d0d6da" stroke="#d0d6da"></path><path d="M192.7 166L186.1 170.5L224.3 175.5Z" fill="#dde3e8" stroke="#dde3e8"></path><path d="M455.4 540L469 443L402.4 467Z" fill="#cfd5d8" stroke="#cfd5d8"></path><path d="M484.6 452L539 515.5L484.6 444.5Z" fill="#d7dde2" stroke="#d7dde2"></path><path d="M564.1 378L698.7 447.5L582.1 354.5Z" fill="#dde3e8" stroke="#dde3e8"></path><path d="M698.7 279.5L695.3 263.5L618.1 226Z" fill="#d6dce0" stroke="#d6dce0"></path><path d="M363.4 508.5L455.4 540L402.4 467Z" fill="#d9dfe3" stroke="#d9dfe3"></path><path d="M278.3 94.5L184.7 162.5L192.7 166Z" fill="#d9dfe3" stroke="#d9dfe3"></path><path d="M80.1 303L148.7 345L188.1 286.5Z" fill="#d7dde2" stroke="#d7dde2"></path><path d="M698.7 279.5L618.1 226L582.1 354.5Z" fill="#d3d9dd" stroke="#d3d9dd"></path><path d="M455.4 540L491.6 540L484.6 452Z" fill="#d3d9dd" stroke="#d3d9dd"></path><path d="M546.6 0L484 11.5L537.6 85Z" fill="#d5dbde" stroke="#d5dbde"></path><path d="M448.4 46.5L404.9 5.5L322.3 74Z" fill="#d0d6da" stroke="#d0d6da"></path><path d="M421 0L404.9 5.5L448.4 46.5Z" fill="#d2d8db" stroke="#d2d8db"></path><path d="M322.3 74L284.3 0L278.3 94.5Z" fill="#d7dde2" stroke="#d7dde2"></path><path d="M737.3 385.5L698.7 279.5L582.1 354.5Z" fill="#cfd5d8" stroke="#cfd5d8"></path><path d="M491.6 540L503 540L484.6 452Z" fill="#d2d8db" stroke="#d2d8db"></path><path d="M698.7 279.5L702.3 265L695.3 263.5Z" fill="#d6dce0" stroke="#d6dce0"></path><path d="M695.3 263.5L709.7 222L618.1 226Z" fill="#d0d6da" stroke="#d0d6da"></path><path d="M484 11.5L421 0L448.4 46.5Z" fill="#dde3e8" stroke="#dde3e8"></path><path d="M421 0L402.4 0L404.9 5.5Z" fill="#dce2e6" stroke="#dce2e6"></path><path d="M404.9 5.5L313.9 0L322.3 74Z" fill="#d9dfe3" stroke="#d9dfe3"></path><path d="M278.3 94.5L194.7 43.5L184.7 162.5Z" fill="#dde3e8" stroke="#dde3e8"></path><path d="M80.1 303L188.1 286.5L78.6 253Z" fill="#d7dde2" stroke="#d7dde2"></path><path d="M188.1 286.5L148.7 345L245.3 352Z" fill="#d0d6da" stroke="#d0d6da"></path><path d="M303.9 540L305.3 540L345.9 488.5Z" fill="#d2d8db" stroke="#d2d8db"></path><path d="M363.4 508.5L305.3 540L455.4 540Z" fill="#d3d9dd" stroke="#d3d9dd"></path><path d="M303.9 540L345.9 488.5L255.7 454.5Z" fill="#d7dde2" stroke="#d7dde2"></path><path d="M262.7 540L303.9 540L255.7 454.5Z" fill="#dce2e6" stroke="#dce2e6"></path><path d="M702.3 265L709.7 222L695.3 263.5Z" fill="#d0d6da" stroke="#d0d6da"></path><path d="M402.4 0L313.9 0L404.9 5.5Z" fill="#d0d6da" stroke="#d0d6da"></path><path d="M601.6 94.5L557.1 5.5L537.6 85Z" fill="#d7dde2" stroke="#d7dde2"></path><path d="M484 11.5L546.6 0L421 0Z" fill="#d7dde2" stroke="#d7dde2"></path><path d="M622.7 29.5L557.1 5.5L601.6 94.5Z" fill="#d7dde2" stroke="#d7dde2"></path><path d="M622.7 29.5L601.6 94.5L726.7 102Z" fill="#dae0e5" stroke="#dae0e5"></path><path d="M557.1 5.5L546.6 0L537.6 85Z" fill="#d7dde2" stroke="#d7dde2"></path><path d="M109.1 540L262.7 540L255.7 454.5Z" fill="#d0d6da" stroke="#d0d6da"></path><path d="M608.1 540L625.1 515.5L539 515.5Z" fill="#d7dde2" stroke="#d7dde2"></path><path d="M539 515.5L625.1 515.5L564.1 378Z" fill="#dce2e6" stroke="#dce2e6"></path><path d="M313.9 0L284.3 0L322.3 74Z" fill="#dde3e8" stroke="#dde3e8"></path><path d="M726.7 102L625.1 142L657.7 160.5Z" fill="#dae0e5" stroke="#dae0e5"></path><path d="M557.1 5.5L642.1 0L546.6 0Z" fill="#dce2e6" stroke="#dce2e6"></path><path d="M503 540L608.1 540L539 515.5Z" fill="#dae0e5" stroke="#dae0e5"></path><path d="M709.7 222L721.3 152L657.7 160.5Z" fill="#dae0e5" stroke="#dae0e5"></path><path d="M694.3 510.5L698.7 447.5L625.1 515.5Z" fill="#dce2e6" stroke="#dce2e6"></path><path d="M625.1 515.5L698.7 447.5L564.1 378Z" fill="#d5dbde" stroke="#d5dbde"></path><path d="M698.7 279.5L781.9 331.5L702.3 265Z" fill="#dde3e8" stroke="#dde3e8"></path><path d="M702.3 265L798.9 223.5L709.7 222Z" fill="#d7dde2" stroke="#d7dde2"></path><path d="M709.7 222L779.9 156L721.3 152Z" fill="#d2d8db" stroke="#d2d8db"></path><path d="M114.6 387L116.1 387L148.7 345Z" fill="#d2d8db" stroke="#d2d8db"></path><path d="M148.7 345L116.1 387L249.3 437.5Z" fill="#dce2e6" stroke="#dce2e6"></path><path d="M284.3 0L194.7 43.5L278.3 94.5Z" fill="#dae0e5" stroke="#dae0e5"></path><path d="M80.1 303L114.6 387L148.7 345Z" fill="#d3d9dd" stroke="#d3d9dd"></path><path d="M188.1 286.5L186.1 170.5L78.6 253Z" fill="#d2d8db" stroke="#d2d8db"></path><path d="M116.1 387L86.1 484.5L249.3 437.5Z" fill="#dde3e8" stroke="#dde3e8"></path><path d="M698.7 447.5L737.3 385.5L582.1 354.5Z" fill="#d2d8db" stroke="#d2d8db"></path><path d="M608.1 540L633.7 540L625.1 515.5Z" fill="#dae0e5" stroke="#dae0e5"></path><path d="M154.7 0L176.1 42.5L194.7 43.5Z" fill="#dae0e5" stroke="#dae0e5"></path><path d="M194.7 43.5L176.1 42.5L184.7 162.5Z" fill="#cfd5d8" stroke="#cfd5d8"></path><path d="M78.6 253L186.1 170.5L92.1 174Z" fill="#d2d8db" stroke="#d2d8db"></path><path d="M92.1 174L186.1 170.5L184.7 162.5Z" fill="#d3d9dd" stroke="#d3d9dd"></path><path d="M721.3 152L726.7 102L657.7 160.5Z" fill="#dae0e5" stroke="#dae0e5"></path><path d="M779.9 156L726.7 102L721.3 152Z" fill="#dde3e8" stroke="#dde3e8"></path><path d="M107.6 122.5L92.1 174L184.7 162.5Z" fill="#d7dde2" stroke="#d7dde2"></path><path d="M726.7 102L642.1 0L622.7 29.5Z" fill="#d9dfe3" stroke="#d9dfe3"></path><path d="M622.7 29.5L642.1 0L557.1 5.5Z" fill="#d9dfe3" stroke="#d9dfe3"></path><path d="M176.1 42.5L107.6 122.5L184.7 162.5Z" fill="#dce2e6" stroke="#dce2e6"></path><path d="M694.3 510.5L738.7 445L698.7 447.5Z" fill="#d9dfe3" stroke="#d9dfe3"></path><path d="M698.7 447.5L738.7 445L737.3 385.5Z" fill="#d7dde2" stroke="#d7dde2"></path><path d="M78.6 253L70.6 293.5L80.1 303Z" fill="#d0d6da" stroke="#d0d6da"></path><path d="M80.1 303L0 439.5L114.6 387Z" fill="#dae0e5" stroke="#dae0e5"></path><path d="M0 292.5L70.6 293.5L0 252.5Z" fill="#d9dfe3" stroke="#d9dfe3"></path><path d="M633.7 540L694.3 510.5L625.1 515.5Z" fill="#d5dbde" stroke="#d5dbde"></path><path d="M809.9 404L781.9 331.5L737.3 385.5Z" fill="#cfd5d8" stroke="#cfd5d8"></path><path d="M737.3 385.5L781.9 331.5L698.7 279.5Z" fill="#cfd5d8" stroke="#cfd5d8"></path><path d="M738.7 445L767.3 429L737.3 385.5Z" fill="#d9dfe3" stroke="#d9dfe3"></path><path d="M778.3 540L767.3 429L738.7 445Z" fill="#d0d6da" stroke="#d0d6da"></path><path d="M798.9 223.5L779.9 156L709.7 222Z" fill="#cfd5d8" stroke="#cfd5d8"></path><path d="M726.7 102L731.7 0L642.1 0Z" fill="#d0d6da" stroke="#d0d6da"></path><path d="M781.9 331.5L798.9 223.5L702.3 265Z" fill="#dde3e8" stroke="#dde3e8"></path><path d="M842.4 170.5L798.9 223.5L854.9 212Z" fill="#dde3e8" stroke="#dde3e8"></path><path d="M284.3 0L154.7 0L194.7 43.5Z" fill="#d6dce0" stroke="#d6dce0"></path><path d="M176.1 42.5L63.6 93L107.6 122.5Z" fill="#d2d8db" stroke="#d2d8db"></path><path d="M114.6 387L86.1 484.5L116.1 387Z" fill="#d0d6da" stroke="#d0d6da"></path><path d="M0 439.5L86.1 484.5L114.6 387Z" fill="#d3d9dd" stroke="#d3d9dd"></path><path d="M154.7 0L138.1 0L176.1 42.5Z" fill="#d6dce0" stroke="#d6dce0"></path><path d="M107.6 122.5L63.6 93L92.1 174Z" fill="#dce2e6" stroke="#dce2e6"></path><path d="M836.9 486.5L809.9 404L767.3 429Z" fill="#dce2e6" stroke="#dce2e6"></path><path d="M767.3 429L809.9 404L737.3 385.5Z" fill="#d0d6da" stroke="#d0d6da"></path><path d="M62.6 540L86.6 500.5L86.1 484.5Z" fill="#d6dce0" stroke="#d6dce0"></path><path d="M86.1 484.5L109.1 540L255.7 454.5Z" fill="#dae0e5" stroke="#dae0e5"></path><path d="M138.1 0L63.6 93L176.1 42.5Z" fill="#dde3e8" stroke="#dde3e8"></path><path d="M92.1 174L16.6 202.5L78.6 253Z" fill="#d0d6da" stroke="#d0d6da"></path><path d="M86.6 500.5L109.1 540L86.1 484.5Z" fill="#d7dde2" stroke="#d7dde2"></path><path d="M771.3 0L731.7 0L726.7 102Z" fill="#d7dde2" stroke="#d7dde2"></path><path d="M0 137L16.6 202.5L92.1 174Z" fill="#dce2e6" stroke="#dce2e6"></path><path d="M70.6 293.5L0 292.5L80.1 303Z" fill="#dde3e8" stroke="#dde3e8"></path><path d="M0 252.5L70.6 293.5L78.6 253Z" fill="#d6dce0" stroke="#d6dce0"></path><path d="M16.6 202.5L0 252.5L78.6 253Z" fill="#cfd5d8" stroke="#cfd5d8"></path><path d="M0 137L0 214L16.6 202.5Z" fill="#d9dfe3" stroke="#d9dfe3"></path><path d="M16.6 202.5L0 214L0 252.5Z" fill="#dae0e5" stroke="#dae0e5"></path><path d="M798.9 223.5L842.4 170.5L779.9 156Z" fill="#dde3e8" stroke="#dde3e8"></path><path d="M779.9 156L815.9 82.5L726.7 102Z" fill="#d5dbde" stroke="#d5dbde"></path><path d="M854.9 212L798.9 223.5L781.9 331.5Z" fill="#d7dde2" stroke="#d7dde2"></path><path d="M858.4 363L854.9 212L781.9 331.5Z" fill="#d7dde2" stroke="#d7dde2"></path><path d="M842.4 170.5L815.9 82.5L779.9 156Z" fill="#dae0e5" stroke="#dae0e5"></path><path d="M633.7 540L778.3 540L694.3 510.5Z" fill="#d3d9dd" stroke="#d3d9dd"></path><path d="M694.3 510.5L778.3 540L738.7 445Z" fill="#d7dde2" stroke="#d7dde2"></path><path d="M809.9 404L858.4 363L781.9 331.5Z" fill="#d5dbde" stroke="#d5dbde"></path><path d="M910.4 433.5L858.4 363L809.9 404Z" fill="#d7dde2" stroke="#d7dde2"></path><path d="M815.9 82.5L771.3 0L726.7 102Z" fill="#d6dce0" stroke="#d6dce0"></path><path d="M0 540L62.6 540L86.1 484.5Z" fill="#dae0e5" stroke="#dae0e5"></path><path d="M86.6 500.5L62.6 540L109.1 540Z" fill="#cfd5d8" stroke="#cfd5d8"></path><path d="M63.6 93L0 137L92.1 174Z" fill="#d2d8db" stroke="#d2d8db"></path><path d="M0 37.5L0 137L63.6 93Z" fill="#dae0e5" stroke="#dae0e5"></path><path d="M0 292.5L0 439.5L80.1 303Z" fill="#d7dde2" stroke="#d7dde2"></path><path d="M0 439.5L0 442L86.1 484.5Z" fill="#dae0e5" stroke="#dae0e5"></path><path d="M778.3 540L836.9 486.5L767.3 429Z" fill="#d5dbde" stroke="#d5dbde"></path><path d="M851.4 0L812.3 22.5L815.9 82.5Z" fill="#d3d9dd" stroke="#d3d9dd"></path><path d="M815.9 82.5L812.3 22.5L771.3 0Z" fill="#cfd5d8" stroke="#cfd5d8"></path><path d="M904.4 102.5L815.9 82.5L842.4 170.5Z" fill="#d2d8db" stroke="#d2d8db"></path><path d="M923.4 287L886.4 195L854.9 212Z" fill="#d9dfe3" stroke="#d9dfe3"></path><path d="M854.9 212L886.4 195L842.4 170.5Z" fill="#d5dbde" stroke="#d5dbde"></path><path d="M17.6 0L0 37.5L63.6 93Z" fill="#dae0e5" stroke="#dae0e5"></path><path d="M138.1 0L17.6 0L63.6 93Z" fill="#d5dbde" stroke="#d5dbde"></path><path d="M931.4 326.5L923.4 287L858.4 363Z" fill="#d2d8db" stroke="#d2d8db"></path><path d="M858.4 363L923.4 287L854.9 212Z" fill="#d9dfe3" stroke="#d9dfe3"></path><path d="M0 442L0 540L86.1 484.5Z" fill="#dce2e6" stroke="#dce2e6"></path><path d="M778.3 540L858.9 540L836.9 486.5Z" fill="#d2d8db" stroke="#d2d8db"></path><path d="M910.4 433.5L931.4 326.5L858.4 363Z" fill="#d2d8db" stroke="#d2d8db"></path><path d="M17.6 0L0 0L0 37.5Z" fill="#d3d9dd" stroke="#d3d9dd"></path><path d="M910.4 433.5L809.9 404L836.9 486.5Z" fill="#dce2e6" stroke="#dce2e6"></path><path d="M868.9 0L851.4 0L815.9 82.5Z" fill="#d2d8db" stroke="#d2d8db"></path><path d="M812.3 22.5L851.4 0L771.3 0Z" fill="#d6dce0" stroke="#d6dce0"></path><path d="M904.4 102.5L842.4 170.5L886.4 195Z" fill="#dde3e8" stroke="#dde3e8"></path><path d="M872.4 540L910.4 433.5L836.9 486.5Z" fill="#d3d9dd" stroke="#d3d9dd"></path><path d="M960 221.5L886.4 195L923.4 287Z" fill="#dde3e8" stroke="#dde3e8"></path><path d="M960 141L904.4 102.5L886.4 195Z" fill="#d0d6da" stroke="#d0d6da"></path><path d="M858.9 540L872.4 540L836.9 486.5Z" fill="#d6dce0" stroke="#d6dce0"></path><path d="M904.4 102.5L868.9 0L815.9 82.5Z" fill="#d6dce0" stroke="#d6dce0"></path><path d="M960 311.5L960 265L923.4 287Z" fill="#d6dce0" stroke="#d6dce0"></path><path d="M960 311.5L923.4 287L931.4 326.5Z" fill="#dce2e6" stroke="#dce2e6"></path><path d="M960 422.5L931.4 326.5L910.4 433.5Z" fill="#d7dde2" stroke="#d7dde2"></path><path d="M960 422.5L960 311.5L931.4 326.5Z" fill="#dae0e5" stroke="#dae0e5"></path><path d="M960 265L960 221.5L923.4 287Z" fill="#dce2e6" stroke="#dce2e6"></path><path d="M904.4 102.5L960 37.5L868.9 0Z" fill="#cfd5d8" stroke="#cfd5d8"></path><path d="M960 221.5L960 141L886.4 195Z" fill="#d7dde2" stroke="#d7dde2"></path><path d="M960 447L960 422.5L910.4 433.5Z" fill="#d5dbde" stroke="#d5dbde"></path><path d="M960 540L960 447L910.4 433.5Z" fill="#d0d6da" stroke="#d0d6da"></path><path d="M960 141L960 37.5L904.4 102.5Z" fill="#dce2e6" stroke="#dce2e6"></path><path d="M872.4 540L960 540L910.4 433.5Z" fill="#d9dfe3" stroke="#d9dfe3"></path><path d="M960 37.5L960 0L868.9 0Z" fill="#dce2e6" stroke="#dce2e6"></path></g></svg>